<svg id="Layer_1" data-name="Layer 1" xmlns="http://www.w3.org/2000/svg" viewBox="0 0 34.83 23.22"><g id="_025---Live-Recording" data-name=" 025---Live-Recording"><path id="Shape" d="M17.07,10.39H1.83A1.83,1.83,0,0,0,0,12.22H0v9.17a1.83,1.83,0,0,0,1.83,1.83H22.61a1.83,1.83,0,0,0,1.83-1.83h0V17.76A7.37,7.37,0,0,0,17.07,10.39ZM5.5,21.39H2.44a.61.61,0,0,1-.61-.61h0v-8a.62.62,0,0,1,.61-.61.61.61,0,0,1,.61.61v7.34H5.5a.61.61,0,1,1,0,1.22Zm3.06-.61a.62.62,0,0,1-1.23,0v-8a.62.62,0,0,1,1.23,0ZM15.26,13l-1.83,8a.62.62,0,0,1-.6.47h-.61a.6.6,0,0,1-.6-.47L9.79,13a.61.61,0,0,1,.46-.73.6.6,0,0,1,.73.46h0l1.55,6.68,1.54-6.68a.61.61,0,1,1,1.19.27Zm4.9,3.53a.61.61,0,0,1,0,1.22H17.72v2.45h2.44a.61.61,0,0,1,0,1.22H17.11a.61.61,0,0,1-.61-.61h0v-8a.61.61,0,0,1,.61-.61h3.05a.61.61,0,0,1,.61.61.61.61,0,0,1-.61.61H17.72V16.5Z"/><path id="Shape-2" d="M17.31,5.46A8.55,8.55,0,0,1,30.36,16.52a7.94,7.94,0,0,1-.81.83,1.22,1.22,0,0,0,1.53,1.91l.1-.09A11,11,0,1,0,15.45,3.89a1.22,1.22,0,1,0,1.8,1.65Z"/><path id="Shape-3" d="M21.69,8a3.67,3.67,0,0,1,5.09,5.15,1.2,1.2,0,0,0-.06,1.31,1.22,1.22,0,0,0,1.67.45,1.11,1.11,0,0,0,.36-.32A6.1,6.1,0,0,0,20.27,6,1.21,1.21,0,0,0,20,7.74a1.39,1.39,0,0,0,.44.36A1.19,1.19,0,0,0,21.69,8Z"/><ellipse id="Oval" cx="24" cy="11.06" rx="1" ry="1.07"/></g></svg>