<svg id="Layer_1" data-name="Layer 1" xmlns="http://www.w3.org/2000/svg" viewBox="0 0 30.87 28.53"><g id="Group_2738" data-name="Group 2738"><g id="megaphone"><g id="Group_2739" data-name="Group 2739"><path id="Path_229" data-name="Path 229" d="M29,8.67l-2.65.71a.9.9,0,0,0,.46,1.73h0l2.65-.71A.9.9,0,1,0,29,8.67Z"/></g><g id="Group_2741" data-name="Group 2741"><path id="Path_230" data-name="Path 230" d="M29.27,14.42l-2.19-1.26a.9.9,0,0,0-.9,1.55L28.37,16a.9.9,0,0,0,.93-1.53Z"/></g><g id="Group_2743" data-name="Group 2743"><path id="Path_231" data-name="Path 231" d="M26.49,4.06a.89.89,0,0,0-1.22.33L24,6.58a.89.89,0,0,0,1.55.89l1.26-2.19A.89.89,0,0,0,26.49,4.06Z"/></g><g id="Group_2745" data-name="Group 2745"><path id="Path_232" data-name="Path 232" d="M5.54,9.4a2.69,2.69,0,0,0-2,2.38l-.15,0a3.58,3.58,0,1,0,1.84,6.92h0l.16,0a2.68,2.68,0,0,0,2.89,1.08l4.32-1.16L9.86,8.24Z"/></g><g id="Group_2747" data-name="Group 2747"><path id="Path_233" data-name="Path 233" d="M17.8.56a1.79,1.79,0,0,0-1.27,2.19L21.17,20a1.79,1.79,0,0,0,3.45-.92L20,1.83A1.79,1.79,0,0,0,17.8.56Z"/></g><g id="Group_2749" data-name="Group 2749"><path id="Path_234" data-name="Path 234" d="M8.48,20.34a3.84,3.84,0,0,1-.89.14L9.08,26a2.68,2.68,0,1,0,5.18-1.39l-1.47-5.47Z"/></g><g id="Group_2751" data-name="Group 2751"><path id="Path_235" data-name="Path 235" d="M15.42,4.41C14.54,5.93,12.09,7.35,10.47,8l2.82,10.53c1.72-.25,4.56-.26,6.09.63l1,.55L16,3.44Z"/></g></g></g></svg>